<svg width="322" height="86" viewBox="0 0 322 86" fill="none" xmlns="http://www.w3.org/2000/svg">
<g clip-path="url(#clip0_755_3005)">
<path d="M101.419 57.423C101.419 62.3022 97.4497 66.2749 92.5669 66.2749C87.6841 66.2749 83.7151 62.3058 83.7151 57.423V21.994H64.2129V57.423C64.2129 73.0573 76.9326 85.7771 92.5669 85.7771C108.201 85.7771 120.921 73.0573 120.921 57.423V21.7737H101.419V57.423Z" fill="#FAFAFA"/>
<path d="M53.4721 27.4006C58.8677 19.5997 61.6053 10.3795 61.6053 0H42.1031C42.1031 11.3654 37.2022 19.6719 27.1225 25.3926C24.533 26.8625 21.9039 27.9784 19.5022 28.8163V0H0V84.8815H19.5022V53.9488C21.763 54.9528 24.2044 56.2133 26.6133 57.7734C37.0361 64.5197 42.1031 73.451 42.1031 85.0801H61.6053C61.6053 67.0297 53.3638 52.0817 37.7584 41.7636C44.2591 37.9029 49.5428 33.0779 53.4721 27.4006Z" fill="#FAFAFA"/>
<path d="M132.652 28.2962C124.754 36.7146 124.634 47.4444 124.725 49.9364V84.773H144.227V49.7269L144.249 49.5608L144.213 49.1743C144.213 48.5748 144.285 44.3132 146.961 41.5504C149.019 39.4232 152.537 38.3434 157.409 38.3434V18.8412C144.278 18.8412 136.701 23.984 132.656 28.2962H132.652Z" fill="#FAFAFA"/>
<path d="M239.311 38.4012H252.045V18.899H239.311V3.60059H219.809V18.899H207.894V38.4012H219.809V65.1481C211.968 65.0758 210.509 62.4575 205.843 51.8468C203.82 47.2494 201.534 42.0452 198.035 36.7688C186.68 18.8592 162.898 18.7978 161.88 18.8051L161.999 38.4951H161.941C161.981 38.4951 165.867 38.5312 170.407 39.8891C175.582 41.4384 179.291 43.9521 181.433 47.3613L181.577 47.5852C182.433 48.8673 183.202 50.1891 183.921 51.529C182.704 51.948 181.458 52.4355 180.208 52.9989C167.16 58.8857 159.977 70.1717 159.977 84.7766H179.479C179.479 77.9762 182.05 73.7182 187.818 70.9662C189.382 70.2222 190.981 69.6913 192.459 69.3121C197.265 77.5681 204.727 84.8489 220.144 84.8489V84.7803H239.307V38.4012H239.311Z" fill="#FAFAFA"/>
<path d="M290.243 42.8253H285.119V62.3274H290.243C302.132 62.3274 311.804 52.6558 311.804 40.7667C311.804 28.8776 302.132 19.2059 290.243 19.2059H283.598C266.09 19.2059 251.846 33.4498 251.846 50.9584C251.846 69.8864 267.245 85.2822 286.17 85.2822H298.875V65.7801H286.17C277.997 65.7801 271.348 59.1313 271.348 50.9584C271.348 44.2049 276.845 38.7081 283.598 38.7081H290.243C291.377 38.7081 292.302 39.6327 292.302 40.7667C292.302 41.9007 291.377 42.8253 290.243 42.8253Z" fill="#FAFAFA"/>
</g>
<path d="M318.202 6.39817C318.787 6.13411 319.119 5.68144 319.119 5.03262C319.119 4.01034 318.281 3.44073 317.074 3.44073H314.656V9.09531H316.063V6.91873H316.659C317.297 6.91873 317.587 7.2092 317.64 7.8203L317.693 8.51062C317.719 8.78976 317.772 9.00101 317.814 9.09531H319.179C319.085 8.88407 319.047 8.52571 319.032 8.02023C318.991 7.01304 318.726 6.61318 318.195 6.40194L318.202 6.39817ZM316.795 5.99831H316.067V4.40643H316.878C317.41 4.40643 317.716 4.64408 317.716 5.13447C317.716 5.75689 317.372 5.99831 316.799 5.99831H316.795Z" fill="#FAFAFA"/>
<path d="M316.752 1.22243C314.075 1.22243 311.752 3.52999 311.752 6.23723C311.752 9.07644 313.928 11.4104 316.831 11.4104C319.497 11.4104 321.898 9.26119 321.898 6.31641C321.898 3.55638 319.712 1.22243 316.752 1.22243ZM316.831 10.3886C314.67 10.3886 312.853 8.58627 312.853 6.31641C312.853 4.04655 314.682 2.24424 316.872 2.24424C319.063 2.24424 320.797 4.02016 320.797 6.38428C320.797 8.54479 319.033 10.3886 316.831 10.3886Z" fill="#FAFAFA"/>
<defs>
<clipPath id="clip0_755_3005">
<rect width="311.804" height="85.7771" fill="white"/>
</clipPath>
</defs>
</svg>
