<svg width="31" height="28" viewBox="0 0 31 28" fill="none" xmlns="http://www.w3.org/2000/svg">
<g clip-path="url(#clip0_327_3867)">
<path fill-rule="evenodd" clip-rule="evenodd" d="M17.6143 2.75537C17.6143 1.81908 16.8552 1.06006 15.9189 1.06006C14.9826 1.06006 14.2236 1.81908 14.2236 2.75537V25.3595C14.2236 26.2958 14.9826 27.0549 15.9189 27.0549C16.8552 27.0549 17.6143 26.2958 17.6143 25.3595V2.75537ZM9.1377 4.29248C10.074 4.29248 10.833 5.0515 10.833 5.98779V22.1272C10.833 23.0635 10.074 23.8225 9.1377 23.8225C8.2014 23.8225 7.44238 23.0635 7.44238 22.1272V5.98779C7.44238 5.0515 8.2014 4.29248 9.1377 4.29248ZM2.35645 7.52417C3.29274 7.52417 4.05176 8.28319 4.05176 9.21948V18.9168C4.05176 19.8531 3.29274 20.6121 2.35645 20.6121C1.42015 20.6121 0.661133 19.8531 0.661133 18.9168V9.21948C0.661133 8.28319 1.42015 7.52417 2.35645 7.52417ZM22.7002 4.29248C23.6365 4.29248 24.3955 5.0515 24.3955 5.98779V22.1272C24.3955 23.0635 23.6365 23.8225 22.7002 23.8225C21.7639 23.8225 21.0049 23.0635 21.0049 22.1272V5.98779C21.0049 5.0515 21.7639 4.29248 22.7002 4.29248ZM31.1768 9.21948C31.1768 8.28319 30.4177 7.52417 29.4814 7.52417C28.5452 7.52417 27.7861 8.28319 27.7861 9.21948V18.9168C27.7861 19.8531 28.5452 20.6121 29.4814 20.6121C30.4177 20.6121 31.1768 19.8531 31.1768 18.9168V9.21948Z" fill="url(#paint0_linear_327_3867)"/>
</g>
<defs>
<linearGradient id="paint0_linear_327_3867" x1="0.661133" y1="10.1483" x2="30.633" y2="10.1922" gradientUnits="userSpaceOnUse">
<stop stop-color="#FFBA86"/>
<stop offset="0.520833" stop-color="#9E98A1"/>
<stop offset="1" stop-color="#437998"/>
</linearGradient>
<clipPath id="clip0_327_3867">
<rect width="31" height="27.125" fill="white"/>
</clipPath>
</defs>
</svg>
