<svg width="1920" height="1080" viewBox="0 0 1920 1080" fill="none" xmlns="http://www.w3.org/2000/svg">
<g clip-path="url(#clip0_727_3004)">
<path d="M813.869 575.909C813.869 587.882 804.129 597.63 792.148 597.63C780.166 597.63 770.426 587.891 770.426 575.909V488.971H722.57V575.909C722.57 614.274 753.783 645.486 792.148 645.486C830.512 645.486 861.725 614.274 861.725 575.909V488.43H813.869V575.909Z" fill="#FAFAFA"/>
<path d="M696.214 502.238C709.454 483.095 716.172 460.47 716.172 435H668.316C668.316 462.889 656.29 483.272 631.555 497.31C625.201 500.917 618.749 503.656 612.856 505.712V435H565V643.289H612.856V567.384C618.404 569.847 624.395 572.94 630.306 576.769C655.882 593.323 668.316 615.24 668.316 643.776H716.172C716.172 599.483 695.948 562.802 657.654 537.483C673.606 528.009 686.572 516.169 696.214 502.238Z" fill="#FAFAFA"/>
<path d="M890.509 504.436C871.127 525.093 870.835 551.423 871.056 557.538V643.023H918.912V557.024L918.966 556.616L918.877 555.668C918.877 554.197 919.054 543.74 925.621 536.96C930.673 531.74 939.304 529.09 951.259 529.09V481.234C919.036 481.234 900.444 493.854 890.518 504.436H890.509Z" fill="#FAFAFA"/>
<path d="M1152.24 529.232H1183.48V481.376H1152.24V443.835H1104.38V481.376H1075.14V529.232H1104.38V594.865C1085.14 594.688 1081.56 588.263 1070.11 562.226C1065.15 550.944 1059.54 538.174 1050.95 525.226C1023.09 481.278 964.73 481.128 962.231 481.145L962.523 529.462H962.382C962.479 529.462 972.015 529.551 983.155 532.883C995.854 536.685 1004.96 542.853 1010.21 551.219L1010.57 551.768C1012.67 554.914 1014.55 558.158 1016.32 561.446C1013.33 562.474 1010.27 563.67 1007.21 565.053C975.188 579.498 957.561 607.193 957.561 643.031H1005.42C1005.42 626.344 1011.73 615.895 1025.88 609.142C1029.72 607.317 1033.64 606.014 1037.27 605.083C1049.06 625.342 1067.37 643.209 1105.21 643.209V643.04H1152.23V529.232H1152.24Z" fill="#FAFAFA"/>
<path d="M1277.22 540.088H1264.65V587.944H1277.22C1306.4 587.944 1330.13 564.211 1330.13 535.037C1330.13 505.862 1306.4 482.129 1277.22 482.129H1260.91C1217.95 482.129 1183 517.082 1183 560.046C1183 606.493 1220.79 644.272 1267.22 644.272H1298.4V596.416H1267.22C1247.17 596.416 1230.85 580.101 1230.85 560.046C1230.85 543.474 1244.34 529.985 1260.91 529.985H1277.22C1280 529.985 1282.27 532.254 1282.27 535.037C1282.27 537.82 1280 540.088 1277.22 540.088Z" fill="#FAFAFA"/>
</g>
<path d="M1345.83 450.701C1347.26 450.053 1348.08 448.942 1348.08 447.35C1348.08 444.841 1346.02 443.443 1343.06 443.443H1337.13V457.319H1340.58V451.978H1342.04C1343.61 451.978 1344.32 452.691 1344.45 454.19L1344.58 455.884C1344.64 456.569 1344.77 457.088 1344.87 457.319H1348.23C1347.99 456.801 1347.9 455.921 1347.86 454.681C1347.76 452.209 1347.11 451.228 1345.81 450.71L1345.83 450.701ZM1342.38 449.719H1340.59V445.813H1342.58C1343.88 445.813 1344.63 446.396 1344.63 447.6C1344.63 449.127 1343.79 449.719 1342.38 449.719H1342.38Z" fill="#FAFAFA"/>
<path d="M1342.27 438C1335.7 438 1330 443.662 1330 450.306C1330 457.273 1335.34 463 1342.46 463C1349 463 1354.9 457.726 1354.9 450.5C1354.9 443.727 1349.53 438 1342.27 438ZM1342.46 460.493C1337.16 460.493 1332.7 456.07 1332.7 450.5C1332.7 444.93 1337.19 440.507 1342.56 440.507C1347.94 440.507 1352.2 444.865 1352.2 450.667C1352.2 455.968 1347.87 460.493 1342.46 460.493Z" fill="#FAFAFA"/>
<defs>
<clipPath id="clip0_727_3004">
<rect width="765.128" height="210.486" fill="white" transform="translate(565 435)"/>
</clipPath>
</defs>
</svg>
