<svg width="7680" height="4320" viewBox="0 0 7680 4320" fill="none" xmlns="http://www.w3.org/2000/svg">
<rect width="7680" height="4320" fill="black"/>
<g clip-path="url(#clip0_727_3004)">
<path d="M3091.78 2359.61C3091.78 2426.61 3037.27 2481.17 2970.22 2481.17C2903.16 2481.17 2848.66 2426.66 2848.66 2359.61V1873.05H2580.83V2359.61C2580.83 2574.32 2755.51 2749 2970.22 2749C3184.92 2749 3359.6 2574.32 3359.6 2359.61V1870.03H3091.78V2359.61Z" fill="#FAFAFA"/>
<path d="M2433.33 1947.3C2507.43 1840.17 2545.02 1713.54 2545.02 1571H2277.2C2277.2 1727.08 2209.9 1841.16 2071.47 1919.72C2035.91 1939.91 1999.81 1955.24 1966.82 1966.74V1571H1699V2736.7H1966.82V2311.89C1997.87 2325.68 2031.4 2342.99 2064.48 2364.42C2207.62 2457.07 2277.2 2579.72 2277.2 2739.43H2545.02C2545.02 2491.54 2431.84 2286.25 2217.54 2144.55C2306.81 2091.53 2379.37 2025.27 2433.33 1947.3Z" fill="#FAFAFA"/>
<path d="M3520.69 1959.6C3412.23 2075.21 3410.59 2222.57 3411.83 2256.79V2735.21H3679.65V2253.91L3679.95 2251.63L3679.45 2246.32C3679.45 2238.09 3680.45 2179.57 3717.2 2141.62C3745.47 2112.41 3793.78 2097.58 3860.68 2097.58V1829.75C3680.35 1829.75 3576.29 1900.38 3520.74 1959.6H3520.69Z" fill="#FAFAFA"/>
<path d="M4985.44 2098.37H5160.32V1830.55H4985.44V1620.45H4717.62V1830.55H4554V2098.37H4717.62V2465.7C4609.94 2464.7 4589.91 2428.75 4525.83 2283.03C4498.05 2219.89 4466.66 2148.42 4418.6 2075.96C4262.67 1830 3936.07 1829.16 3922.08 1829.26L3923.72 2099.66H3922.93C3923.47 2099.66 3976.84 2100.16 4039.18 2118.81C4110.25 2140.09 4161.19 2174.61 4190.6 2221.43L4192.58 2224.5C4204.34 2242.11 4214.9 2260.26 4224.77 2278.66C4208.06 2284.42 4190.95 2291.11 4173.79 2298.85C3994.59 2379.69 3895.95 2534.69 3895.95 2735.26H4163.77C4163.77 2641.87 4199.08 2583.39 4278.29 2545.6C4299.76 2535.38 4321.74 2528.09 4342.02 2522.88C4408.03 2636.26 4510.5 2736.25 4722.23 2736.25V2735.31H4985.39V2098.37H4985.44Z" fill="#FAFAFA"/>
<path d="M5684.91 2159.13H5614.53V2426.96H5684.91C5848.18 2426.96 5981 2294.14 5981 2130.86C5981 1967.58 5848.18 1834.76 5684.91 1834.76H5593.65C5353.2 1834.76 5157.59 2030.38 5157.59 2270.83C5157.59 2530.77 5369.08 2742.2 5628.96 2742.2H5803.45V2474.38H5628.96C5516.73 2474.38 5425.42 2383.07 5425.42 2270.83C5425.42 2178.08 5500.9 2102.59 5593.65 2102.59H5684.91C5700.48 2102.59 5713.18 2115.29 5713.18 2130.86C5713.18 2146.43 5700.48 2159.13 5684.91 2159.13Z" fill="#FAFAFA"/>
</g>
<path d="M6008.14 1621.6C6019.67 1616.42 6026.21 1607.53 6026.21 1594.8C6026.21 1574.73 6009.7 1563.55 5985.91 1563.55H5938.25V1674.55H5965.98V1631.82H5977.73C5990.3 1631.82 5996.02 1637.53 5997.06 1649.52L5998.1 1663.07C5998.62 1668.55 5999.67 1672.7 6000.48 1674.55H6027.4C6025.54 1670.4 6024.8 1663.37 6024.5 1653.45C6023.68 1633.67 6018.48 1625.83 6007.99 1621.68L6008.14 1621.6ZM5980.41 1613.75H5966.06V1582.5H5982.04C5992.53 1582.5 5998.55 1587.17 5998.55 1596.8C5998.55 1609.02 5991.78 1613.75 5980.48 1613.75H5980.41Z" fill="#FAFAFA"/>
<path d="M5979.55 1520C5926.78 1520 5881 1565.3 5881 1618.45C5881 1674.18 5923.88 1720 5981.11 1720C6033.66 1720 6081 1677.81 6081 1620C6081 1565.82 6037.89 1520 5979.55 1520ZM5981.11 1699.94C5938.53 1699.94 5902.7 1664.56 5902.7 1620C5902.7 1575.44 5938.75 1540.06 5981.93 1540.06C6025.11 1540.06 6059.3 1574.92 6059.3 1621.33C6059.3 1663.75 6024.52 1699.94 5981.11 1699.94Z" fill="#FAFAFA"/>
<defs>
<clipPath id="clip0_727_3004">
<rect width="4282" height="1178" fill="white" transform="translate(1699 1571)"/>
</clipPath>
</defs>
</svg>
