<svg width="4494" height="2567" viewBox="0 0 4494 2567" fill="none" xmlns="http://www.w3.org/2000/svg">
<rect width="4494" height="2567" fill="black"/>
<g clip-path="url(#clip0_727_3004)">
<path d="M1476.07 1489.71C1476.07 1558.76 1419.9 1614.99 1350.81 1614.99C1281.72 1614.99 1225.56 1558.81 1225.56 1489.71V988.282H949.606V1489.71C949.606 1710.98 1129.59 1891 1350.81 1891C1572.04 1891 1752.02 1710.98 1752.02 1489.71V985.164H1476.07V1489.71Z" fill="#FAFAFA"/>
<path d="M797.626 1064.8C873.974 954.394 912.709 823.901 912.709 677H636.755C636.755 837.855 567.409 955.416 424.781 1036.38C388.14 1057.18 350.938 1072.98 316.954 1084.84V677H41V1878.32H316.954V1440.54C348.945 1454.75 383.49 1472.58 417.576 1494.66C565.058 1590.15 636.755 1716.55 636.755 1881.14H912.709C912.709 1625.67 796.093 1414.11 575.278 1268.08C667.263 1213.44 742.026 1145.15 797.626 1064.8Z" fill="#FAFAFA"/>
<path d="M1918 1077.48C1806.24 1196.62 1804.55 1348.48 1805.83 1383.75V1876.79H2081.78V1380.78L2082.09 1378.43L2081.58 1372.96C2081.58 1364.48 2082.6 1304.16 2120.47 1265.06C2149.6 1234.96 2199.37 1219.67 2268.31 1219.67V943.66C2082.5 943.66 1975.28 1016.45 1918.05 1077.48H1918Z" fill="#FAFAFA"/>
<path d="M3427.22 1220.49H3607.41V944.478H3427.22V727.96H3151.26V944.478H2982.67V1220.49H3151.26V1599.04C3040.32 1598.02 3019.67 1560.96 2953.65 1410.79C2925.03 1345.72 2892.68 1272.07 2843.16 1197.39C2682.5 943.916 2345.99 943.047 2331.58 943.149L2333.26 1221.82H2332.44C2333.01 1221.82 2387.99 1222.33 2452.23 1241.55C2525.46 1263.48 2577.94 1299.05 2608.25 1347.3L2610.29 1350.47C2622.4 1368.62 2633.29 1387.33 2643.46 1406.29C2626.23 1412.22 2608.6 1419.12 2590.92 1427.09C2406.29 1510.41 2304.64 1670.14 2304.64 1876.84H2580.6C2580.6 1780.59 2616.98 1720.33 2698.6 1681.38C2720.72 1670.85 2743.36 1663.34 2764.26 1657.97C2832.28 1774.82 2937.86 1877.86 3156.02 1877.86V1876.89H3427.17V1220.49H3427.22Z" fill="#FAFAFA"/>
<path d="M4147.92 1283.11H4075.41V1559.12H4147.92C4316.15 1559.12 4453 1422.24 4453 1253.97C4453 1085.7 4316.15 948.822 4147.92 948.822H4053.89C3806.15 948.822 3604.6 1150.41 3604.6 1398.21C3604.6 1666.1 3822.5 1884 4090.28 1884H4270.06V1607.98H4090.28C3974.63 1607.98 3880.55 1513.88 3880.55 1398.21C3880.55 1302.63 3958.33 1224.84 4053.89 1224.84H4147.92C4163.97 1224.84 4177.05 1237.92 4177.05 1253.97C4177.05 1270.02 4163.97 1283.11 4147.92 1283.11Z" fill="#FAFAFA"/>
</g>
<path d="M4418.03 783.292C4423.57 780.827 4426.71 776.602 4426.71 770.545C4426.71 761.003 4418.78 755.686 4407.36 755.686H4384.48V808.469H4397.8V788.151H4403.44C4409.47 788.151 4412.22 790.863 4412.72 796.567L4413.22 803.011C4413.47 805.617 4413.97 807.589 4414.36 808.469H4427.28C4426.39 806.497 4426.03 803.152 4425.89 798.434C4425.49 789.032 4423 785.299 4417.96 783.327L4418.03 783.292ZM4404.72 779.56H4397.83V764.7H4405.51C4410.54 764.7 4413.43 766.918 4413.43 771.496C4413.43 777.306 4410.18 779.56 4404.76 779.56H4404.72Z" fill="#FAFAFA"/>
<path d="M4404.31 734.979C4378.98 734.979 4357 756.519 4357 781.79C4357 808.293 4377.59 830.08 4405.06 830.08C4430.28 830.08 4453.01 810.018 4453.01 782.53C4453.01 756.766 4432.32 734.979 4404.31 734.979ZM4405.06 820.542C4384.61 820.542 4367.42 803.718 4367.42 782.53C4367.42 761.341 4384.72 744.517 4405.45 744.517C4426.18 744.517 4442.59 761.095 4442.59 783.163C4442.59 803.331 4425.89 820.542 4405.06 820.542Z" fill="#FAFAFA"/>
<defs>
<clipPath id="clip0_727_3004">
<rect width="4412" height="1214" fill="white" transform="translate(41 677)"/>
</clipPath>
</defs>
</svg>
