<svg width="25" height="25" viewBox="0 0 25 25" fill="none" xmlns="http://www.w3.org/2000/svg">
<path d="M15.8281 12.7005C17.2629 12.0526 18.0775 10.9418 18.0775 9.34964C18.0775 6.8411 16.0225 5.44336 13.0604 5.44336H7.12695V19.319H10.5797V13.9779H12.0422C13.6066 13.9779 14.3193 14.6907 14.4489 16.1903L14.5785 17.8842C14.6433 18.5692 14.7729 19.0876 14.8747 19.319H18.2256C17.9942 18.8006 17.9016 17.9212 17.8646 16.6809C17.7628 14.2094 17.1148 13.2282 15.8096 12.7098L15.8281 12.7005ZM12.3754 11.7193H10.5889V7.81305H12.5791C13.8843 7.81305 14.634 8.39621 14.634 9.59957C14.634 11.1269 13.7917 11.7193 12.3847 11.7193H12.3754Z" fill="#FAFAFA"/>
<path d="M12.2687 0C5.69948 0 0 5.66247 0 12.3057C0 19.2728 5.33864 25 12.463 25C19.0044 25 24.8982 19.7261 24.8982 12.5C24.8982 5.72724 19.5318 0 12.2687 0ZM12.463 22.4926C7.16136 22.4926 2.7017 18.0699 2.7017 12.5C2.7017 6.93005 7.18912 2.5074 12.5648 2.5074C17.9404 2.5074 22.1965 6.86528 22.1965 12.6665C22.1965 17.9682 17.8664 22.4926 12.463 22.4926Z" fill="#FAFAFA"/>
</svg>
